<?xml version="1.0" encoding="UTF-8" standalone="no"?>
<svg
   xmlns:dc="http://purl.org/dc/elements/1.1/"
   xmlns:cc="http://creativecommons.org/ns#"
   xmlns:rdf="http://www.w3.org/1999/02/22-rdf-syntax-ns#"
   xmlns:svg="http://www.w3.org/2000/svg"
   xmlns="http://www.w3.org/2000/svg"
   xmlns:sodipodi="http://sodipodi.sourceforge.net/DTD/sodipodi-0.dtd"
   xmlns:inkscape="http://www.inkscape.org/namespaces/inkscape"
   width="876.008"
   height="232.864"
   viewBox="0 0 876.00753 232.86435"
   version="1.1"
   id="svg46"
   sodipodi:docname="logo.svg"
   inkscape:version="0.92.3 (2405546, 2018-03-11)">
  <metadata
     id="metadata50">
    <rdf:RDF>
      <cc:Work
         rdf:about="">
        <dc:format>image/svg+xml</dc:format>
        <dc:type
           rdf:resource="http://purl.org/dc/dcmitype/StillImage" />
      </cc:Work>
    </rdf:RDF>
  </metadata>
  <sodipodi:namedview
     pagecolor="#ffffff"
     bordercolor="#666666"
     borderopacity="1"
     objecttolerance="10"
     gridtolerance="10"
     guidetolerance="10"
     inkscape:pageopacity="0"
     inkscape:pageshadow="2"
     inkscape:window-width="1600"
     inkscape:window-height="845"
     id="namedview48"
     showgrid="false"
     inkscape:zoom="0.5776203"
     inkscape:cx="438.004"
     inkscape:cy="116.432"
     inkscape:window-x="0"
     inkscape:window-y="27"
     inkscape:window-maximized="1"
     inkscape:current-layer="svg46" />
  <defs
     id="defs32">
    <clipPath
       id="a">
      <path
         d="M3988.26 3281.48c37.79 392.45-124.35 822.44-454.28 1195.27-7.68 8.67-15.36 17.34-23.15 25.87-133.6 146.19-294.86 288.64-507.49 448.29-117.45 88.2-239.97 173.91-358.46 256.79-82.96 58.04-168.75 118.05-251.77 178.21-353.15 255.87-741.17 577.09-941.44 1019.48-166.31 367.37-185.06 796.29-51.46 1176.77 125.84 358.38 384.05 665.79 714.02 853.02-8.07-53.03-9.21-107.27-3.39-162.23l-8.69 3.9 18.47-67.61c8.69-43.17 21.69-87.22 38.65-130.98 66.87-172.52 199.4-353.62 393.91-538.28 210.08-199.44 502.91-422.57 761.27-619.44 72.27-55.07 140.52-107.07 203.24-155.73 331.16-256.95 580.05-456.58 767.46-686.2 204.56-250.65 317.67-522.6 355.98-855.85.25-2.09 1.3-10.04 1.51-11.99 25.28-231.72 15.06-469.01-30.39-705.26-88.79-461.69-309.09-892.64-623.99-1224.03z"
         id="path2" />
    </clipPath>
    <clipPath
       id="b">
      <path
         d="M4010.34 5018.36c-1147.85 1108.8-1681.85 2625.89-1820.4 3071.79-16.11 41.56-28.73 83.81-37.27 126.6-.26.95-.42 1.57-.42 1.57s.1-.05.13-.07c-18.01 91.25-17.39 184.9 8.79 279.5 0 0-1207.197-1306.24 823.03-3573.43 0 0-.33.16-.61.29 179.62-134.87 351.47-278.42 502.95-444.18 7.68-8.4 15.25-16.94 22.81-25.48 82.98 259.63 268.2 439.65 500.99 563.41z"
         id="path5" />
    </clipPath>
    <clipPath
       id="c">
      <path
         d="M3537.85 6790.79c-285.88 221.83-694.43 519-962.03 773.05-157.46 149.49-309.9 330.28-385.88 526.31 138.55-445.9 672.55-1962.99 1820.4-3071.79 198.02 105.27 430.39 169.88 663.47 208.16-84.03 730.94-505.8 1075.33-1135.96 1564.27z"
         id="path8" />
    </clipPath>
    <clipPath
       id="d">
      <path
         d="M2161.17 8497.75c-366.08-186.11-655.94-517.21-792-904.69-136.06-387.48-116.83-827.11 52.54-1201.24 195.33-431.47 568.56-754.66 952.09-1032.55 201.71-146.15 410.54-285.05 609.79-434.66.28-.13.61-.29.61-.29-2030.227 2267.19-823.03 3573.43-823.03 3573.43z"
         id="path11" />
    </clipPath>
    <clipPath
       id="e">
      <path
         d="M3941.88 3188.05c362.76 350.01 607.55 816.67 702.68 1311.25-229.56 156.68-440.63 332.05-634.22 519.06-232.79-123.76-418.01-303.78-500.99-563.41 307.18-347.14 517.57-812.53 432.53-1266.9z"
         id="path14" />
    </clipPath>
    <clipPath
       id="f">
      <path
         d="M4644.56 4499.3c45.24 235.21 56.79 476.71 30.78 715.03-.45 4.13-1.05 8.08-1.53 12.19-233.08-38.28-465.45-102.89-663.47-208.16 193.59-187.01 404.66-362.38 634.22-519.06z"
         id="path17" />
    </clipPath>
    <clipPath
       id="g">
      <path
         d="M2927.22 4737.56c-463.72 342.06-904.71 551.66-1392.24 1149.48-86.22-271.53-126.08-562.75-114.92-849.69 337.32 85.83 909.53 126.21 1507.16-299.79z"
         id="path20" />
    </clipPath>
    <clipPath
       id="h">
      <path
         d="M3122.53 2113.58c-6.64-64.58-23.28-127.52-53.99-187.43 251.18 306.65 478.44 642.71 590.31 1022.99 111.87 380.28 96.25 812.25-113.97 1148.3-52.07 83.23-114.4 165.13-182.91 243.6-36.17 40.92-72.43 79.74-108.74 116.59-4.61 4.64-9.15 9.35-13.79 13.95-.42.41-.83.82-1.25 1.23-90.88 89.98-187.81 172.88-283.78 244.64-9.08 6.79-18.13 13.42-27.19 20.11-597.63 426-1169.84 385.62-1507.16 299.79.01 0 0-.01.01-.01 1746.77-1431.05 1778.38-2508.02 1702.46-2923.76z"
         id="path23" />
    </clipPath>
    <clipPath
       id="i">
      <path
         d="M1420.07 5037.34s769.09-667.22 1315.51-1940.37c.02-.03.03-.06.04-.08 144.85-139.6 256.99-311.1 312.78-500.1 46.57-157.76 90.36-325.42 74.13-483.21 75.92 415.74 44.31 1492.71-1702.46 2923.76z"
         id="path26" />
    </clipPath>
    <clipPath
       id="j">
      <path
         d="M1420.07 5037.34c19.4-498.64 193.02-984.34 546.18-1331.27 165.38-162.45 524.29-399.05 701.74-548.23 23.25-19.54 45.79-39.91 67.63-60.95-.01.02-.02.05-.04.08-546.42 1273.15-1315.51 1940.36-1315.51 1940.37z"
         id="path29" />
    </clipPath>
  </defs>
  <path
     d="M449.646 232.864c24.353-4.884 43.773-27.064 45.23-51.89 2.047-23.04-11.585-43.525-25.732-60.374-14.977-18.04-32.405-36.704-35.257-61.058-1.05-8.545-.095-17.48 3.666-25.294-23.224 12.924-39.954 36.977-43.8 63.272-.784 5.372-.117 12.23 1.033 17.992 4.076 20.425 18.023 36.437 29.903 52.63 10.06 13.63 22.23 26.58 27.305 43.023 2.216 7.182 1.834 15.1-2.35 21.7z"
     fill="#328798"
     id="path34" />
  <path
     d="M497.29 148.663c13.534-21.27 18.667-49.38 8.297-73.01-6.5-15.044-20.69-25.215-26.975-40.353-3.627-9.06-3.65-19.303-1.6-28.726-.06-2.348 5.8-9.568.498-5.196-15.674 11.63-30.31 27.37-33.604 47.295-2.274 11.52 1.033 23.31 6.727 33.335 10.2 18.934 27.685 32.568 38.5 51.11 3.06 4.993 5.768 10.2 8.158 15.545z"
     fill="#f9a72c"
     id="path36" />
  <g
     id="g40"
     style="fill:#f9a72c">
    <path
       d="m 808.878,104.452 c 0,0.047 -0.007,0.09 -0.007,0.137 v 50.727 c 0,7.624 6.146,13.77 13.77,13.77 h 44.037 v 12.176 c 0,2.39 -2.05,4.437 -4.438,4.437 h -41.194 v 9.444 h 41.193 c 7.736,0 13.767,-6.145 13.767,-13.88 v -76.675 c 0,-0.047 -0.007,-0.09 -0.007,-0.138 h -9.338 c 0,0.047 0.014,0.09 0.014,0.137 v 50.727 c 0,2.39 -2.048,4.437 -4.437,4.437 h -39.6 c -2.39,0 -4.44,-2.048 -4.44,-4.437 V 104.59 c 0,-0.047 0.014,-0.09 0.016,-0.138 z M 772.565,81.99 v 73.848 c 0,2.39 2.05,4.438 4.44,4.438 h 11.15 v 9.332 h -11.15 a 13.744,13.744 0 0 1 -13.77,-13.77 v -87.35 h 9.33 m -28.047,48.89 v 52.23 h -9.33 v -52.23 c 0,-2.39 -2.05,-4.438 -4.438,-4.438 h -39.598 c -2.504,0 -4.553,2.05 -4.553,4.438 v 52.23 h -9.33 v -66 h 53.48 a 13.745,13.745 0 0 1 13.768,13.77 m -104.861,40.824 c 2.957,0 5.49,-2.534 5.49,-5.49 V 85.125 c 0,-2.956 -2.533,-5.49 -5.49,-5.49 H 572.07 c -2.957,0 -5.49,2.534 -5.49,5.49 v 67.587 c 0,2.956 2.533,5.49 5.49,5.49 z m 0,-89.973 c 9.433,0 16.896,7.462 16.896,16.895 v 67.587 c 0,9.433 -7.463,16.896 -16.896,16.896 H 572.07 c -9.433,0 -16.896,-7.463 -16.896,-16.896 V 85.125 c 0,-9.433 7.463,-16.896 16.897,-16.896 h 67.586"
       id="path38"
       inkscape:connector-curvature="0" />
  </g>
  <g
     fill="#328798"
     id="g44">
    <path
       d="M16.897 79.635c-2.958 0-5.492 2.534-5.492 5.49v67.587c0 2.956 2.534 5.49 5.492 5.49h84.2v11.406h-84.2C7.462 169.608 0 162.145 0 152.712V85.125C0 75.692 7.462 68.23 16.897 68.23h84.2v11.405h-84.2M225.214 88.812h-12.502v-1.398c0-3.67-3.146-6.815-6.812-6.815h-60.802c-3.67 0-6.812 5.145-6.812 8.814v15.55c0 3.666 3.143 6.81 6.812 6.81H205.9c11.88 0 19.314 9.44 19.314 21.14v17.552c0 11.707-7.435 19.142-19.314 19.142h-60.802c-11.705 0-19.14-11.034-19.14-19.142v-1.396h12.328v1.396c0 3.668 3.143 6.814 6.812 6.814H205.9c3.666 0 6.812-3.146 6.812-6.814v-17.55c0-3.666-3.146-6.813-6.812-6.813h-60.802c-11.705 0-19.14-9.432-19.14-21.14v-15.55c0-11.705 7.435-21.143 19.14-21.143H205.9c11.88 0 19.314 10.392 19.314 19.144v1.398M349.33 88.812h-12.5v-1.398c0-3.67-3.147-6.815-6.814-6.815h-60.802c-3.668 0-6.812 5.145-6.812 8.814v15.55c0 3.666 3.144 6.81 6.812 6.81h60.802c11.88 0 19.315 9.44 19.315 21.14v17.552c0 11.707-7.434 19.142-19.314 19.142h-60.802c-11.705 0-19.14-11.034-19.14-19.142v-1.396H262.4v1.396c0 3.668 3.144 6.814 6.812 6.814h60.802c3.667 0 6.812-3.146 6.812-6.814v-17.55c0-3.666-3.145-6.813-6.812-6.813h-60.802c-11.705 0-19.14-9.432-19.14-21.14v-15.55c0-11.705 7.435-21.143 19.14-21.143h60.802c11.88 0 19.315 10.392 19.315 19.144v1.398"
       id="path42" />
  </g>
</svg>
